<svg xmlns="http://www.w3.org/2000/svg" xmlns:xlink="http://www.w3.org/1999/xlink" width="500" zoomAndPan="magnify" viewBox="0 0 375 374.999991" height="500" preserveAspectRatio="xMidYMid meet" version="1.0"><defs><g/><clipPath id="19e0b0adcf"><path d="M 94 128 L 136 128 L 136 152 L 94 152 Z M 94 128 " clip-rule="nonzero"/></clipPath><clipPath id="edc24d1095"><path d="M 143.402344 100.140625 L 212.875 169.613281 L 143.402344 239.085938 L 73.929688 169.613281 Z M 143.402344 100.140625 " clip-rule="nonzero"/></clipPath><clipPath id="791cb39b8a"><path d="M 143.402344 100.140625 L 212.875 169.613281 L 143.402344 239.085938 L 73.929688 169.613281 Z M 143.402344 100.140625 " clip-rule="nonzero"/></clipPath><clipPath id="acd1ac21e2"><path d="M 143.402344 100.140625 L 212.875 169.613281 L 143.402344 239.085938 L 73.929688 169.613281 Z M 143.402344 100.140625 " clip-rule="nonzero"/></clipPath><clipPath id="5cc65bdf91"><path d="M 151 128 L 193 128 L 193 152 L 151 152 Z M 151 128 " clip-rule="nonzero"/></clipPath><clipPath id="2a968ef3eb"><path d="M 143.402344 100.140625 L 212.875 169.613281 L 143.402344 239.085938 L 73.929688 169.613281 Z M 143.402344 100.140625 " clip-rule="nonzero"/></clipPath><clipPath id="66e43f2dd7"><path d="M 143.402344 100.140625 L 212.875 169.613281 L 143.402344 239.085938 L 73.929688 169.613281 Z M 143.402344 100.140625 " clip-rule="nonzero"/></clipPath><clipPath id="fb344aa849"><path d="M 143.402344 100.140625 L 212.875 169.613281 L 143.402344 239.085938 L 73.929688 169.613281 Z M 143.402344 100.140625 " clip-rule="nonzero"/></clipPath><clipPath id="c608964c26"><path d="M 140 146 L 147 146 L 147 238 L 140 238 Z M 140 146 " clip-rule="nonzero"/></clipPath><clipPath id="9795b0c588"><path d="M 143.402344 100.140625 L 212.875 169.613281 L 143.402344 239.085938 L 73.929688 169.613281 Z M 143.402344 100.140625 " clip-rule="nonzero"/></clipPath><clipPath id="ed22bd94b3"><path d="M 143.402344 100.140625 L 212.875 169.613281 L 143.402344 239.085938 L 73.929688 169.613281 Z M 143.402344 100.140625 " clip-rule="nonzero"/></clipPath><clipPath id="89f191fc10"><path d="M 143.402344 100.140625 L 212.875 169.613281 L 143.402344 239.085938 L 73.929688 169.613281 Z M 143.402344 100.140625 " clip-rule="nonzero"/></clipPath><clipPath id="608816b313"><path d="M 136 122 L 151 122 L 151 146 L 136 146 Z M 136 122 " clip-rule="nonzero"/></clipPath><clipPath id="77ff7b7f92"><path d="M 143.402344 100.140625 L 212.875 169.613281 L 143.402344 239.085938 L 73.929688 169.613281 Z M 143.402344 100.140625 " clip-rule="nonzero"/></clipPath><clipPath id="a82bed0d47"><path d="M 143.402344 100.140625 L 212.875 169.613281 L 143.402344 239.085938 L 73.929688 169.613281 Z M 143.402344 100.140625 " clip-rule="nonzero"/></clipPath><clipPath id="995d729871"><path d="M 143.402344 100.140625 L 212.875 169.613281 L 143.402344 239.085938 L 73.929688 169.613281 Z M 143.402344 100.140625 " clip-rule="nonzero"/></clipPath><clipPath id="7e7465e222"><path d="M 5 0.921875 L 46 0.921875 L 46 58 L 5 58 Z M 5 0.921875 " clip-rule="nonzero"/></clipPath><clipPath id="306db64540"><path d="M 55 0.921875 L 91 0.921875 L 91 57 L 55 57 Z M 55 0.921875 " clip-rule="nonzero"/></clipPath><clipPath id="25cc110c09"><rect x="0" width="96" y="0" height="76"/></clipPath></defs><g clip-path="url(#19e0b0adcf)"><g clip-path="url(#edc24d1095)"><g clip-path="url(#791cb39b8a)"><g clip-path="url(#acd1ac21e2)"><path fill="#000000" d="M 115.878906 133.40625 C 105.398438 138.144531 98.46875 145.339844 94.15625 151.359375 C 100.863281 147.613281 107.96875 144.625 115.324219 142.46875 C 121.878906 140.542969 128.652344 139.28125 135.46875 138.695312 L 135.082031 128.753906 C 128.378906 129.121094 121.917969 130.671875 115.878906 133.40625 Z M 115.878906 133.40625 " fill-opacity="1" fill-rule="nonzero"/></g></g></g></g><g clip-path="url(#5cc65bdf91)"><g clip-path="url(#2a968ef3eb)"><g clip-path="url(#66e43f2dd7)"><g clip-path="url(#fb344aa849)"><path fill="#000000" d="M 171.421875 142.46875 C 178.777344 144.625 185.886719 147.613281 192.59375 151.359375 C 188.28125 145.339844 181.351562 138.144531 170.871094 133.40625 C 164.832031 130.671875 158.375 129.121094 151.664062 128.753906 L 151.28125 138.695312 C 158.097656 139.28125 164.871094 140.542969 171.421875 142.46875 Z M 171.421875 142.46875 " fill-opacity="1" fill-rule="nonzero"/></g></g></g></g><g clip-path="url(#c608964c26)"><g clip-path="url(#9795b0c588)"><g clip-path="url(#ed22bd94b3)"><g clip-path="url(#89f191fc10)"><path fill="#000000" d="M 146.414062 234.378906 L 146.414062 146.90625 L 140.335938 146.910156 L 140.335938 234.378906 C 140.335938 236.003906 141.75 237.417969 143.375 237.417969 C 145.050781 237.417969 146.414062 236.054688 146.414062 234.378906 Z M 146.414062 234.378906 " fill-opacity="1" fill-rule="nonzero"/></g></g></g></g><g clip-path="url(#608816b313)"><g clip-path="url(#77ff7b7f92)"><g clip-path="url(#a82bed0d47)"><g clip-path="url(#995d729871)"><path fill="#000000" d="M 150.234375 124.519531 C 147.566406 123.207031 145.050781 122.921875 143.375 122.921875 C 140.457031 122.921875 138.09375 123.746094 136.515625 124.519531 L 136.644531 127.875 C 136.644531 127.878906 136.644531 127.878906 136.644531 127.878906 L 137.320312 145.3125 L 139.535156 145.3125 C 139.535156 145.3125 139.535156 145.3125 139.539062 145.3125 L 149.429688 145.3125 Z M 150.234375 124.519531 " fill-opacity="1" fill-rule="nonzero"/></g></g></g></g><g transform="matrix(1, 0, 0, 1, 36, 151)"><g clip-path="url(#25cc110c09)"><g clip-path="url(#7e7465e222)"><g fill="#000000" fill-opacity="1"><g transform="translate(0.750002, 56.777703)"><g><path d="M 44.75 -22.859375 C 44.75 -17.347656 43.878906 -12.878906 42.140625 -9.453125 C 40.398438 -6.023438 38.03125 -3.503906 35.03125 -1.890625 C 32.03125 -0.285156 28.566406 0.515625 24.640625 0.515625 C 20.773438 0.515625 17.3125 -0.285156 14.25 -1.890625 C 11.195312 -3.503906 8.800781 -6.023438 7.0625 -9.453125 C 5.332031 -12.878906 4.46875 -17.347656 4.46875 -22.859375 L 4.46875 -32.46875 C 4.46875 -37.96875 5.332031 -42.429688 7.0625 -45.859375 C 8.800781 -49.285156 11.195312 -51.804688 14.25 -53.421875 C 17.3125 -55.035156 20.773438 -55.84375 24.640625 -55.84375 C 28.566406 -55.84375 32.03125 -55.035156 35.03125 -53.421875 C 38.03125 -51.804688 40.398438 -49.285156 42.140625 -45.859375 C 43.878906 -42.429688 44.75 -37.96875 44.75 -32.46875 Z M 37.890625 -22.859375 L 37.890625 -32.46875 C 37.890625 -38.71875 36.710938 -43.15625 34.359375 -45.78125 C 32.003906 -48.414062 28.765625 -49.734375 24.640625 -49.734375 C 20.566406 -49.734375 17.328125 -48.414062 14.921875 -45.78125 C 12.515625 -43.15625 11.3125 -38.71875 11.3125 -32.46875 L 11.3125 -22.859375 C 11.3125 -16.597656 12.515625 -12.148438 14.921875 -9.515625 C 17.328125 -6.890625 20.566406 -5.578125 24.640625 -5.578125 C 28.710938 -5.578125 31.9375 -6.890625 34.3125 -9.515625 C 36.695312 -12.148438 37.890625 -16.597656 37.890625 -22.859375 Z M 37.890625 -22.859375 "/></g></g></g></g><g clip-path="url(#306db64540)"><g fill="#000000" fill-opacity="1"><g transform="translate(49.961926, 56.777703)"><g><path d="M 40.796875 -38.71875 C 40.796875 -34.59375 39.898438 -31.300781 38.109375 -28.84375 C 36.328125 -26.394531 33.859375 -24.644531 30.703125 -23.59375 C 27.554688 -22.550781 23.972656 -22.03125 19.953125 -22.03125 C 18.765625 -22.03125 17.472656 -22.078125 16.078125 -22.171875 C 14.691406 -22.273438 13.503906 -22.351562 12.515625 -22.40625 L 12.515625 -1.484375 C 12.515625 -1.140625 12.390625 -0.804688 12.140625 -0.484375 C 11.890625 -0.160156 11.566406 0 11.171875 0 L 7.140625 0 C 6.796875 0 6.488281 -0.144531 6.21875 -0.4375 C 5.945312 -0.738281 5.8125 -1.085938 5.8125 -1.484375 L 5.8125 -53.390625 C 5.8125 -54.472656 6.40625 -55.09375 7.59375 -55.25 C 9.1875 -55.445312 11.109375 -55.59375 13.359375 -55.6875 C 15.617188 -55.789062 17.816406 -55.84375 19.953125 -55.84375 C 23.972656 -55.84375 27.554688 -55.332031 30.703125 -54.3125 C 33.859375 -53.289062 36.328125 -51.601562 38.109375 -49.25 C 39.898438 -46.894531 40.796875 -43.707031 40.796875 -39.6875 Z M 34.03125 -38.71875 L 34.03125 -39.6875 C 34.03125 -43.457031 32.882812 -46.132812 30.59375 -47.71875 C 28.3125 -49.3125 24.765625 -50.109375 19.953125 -50.109375 C 18.804688 -50.109375 17.5 -50.082031 16.03125 -50.03125 C 14.570312 -49.976562 13.398438 -49.90625 12.515625 -49.8125 L 12.515625 -28 C 13.359375 -27.945312 14.570312 -27.882812 16.15625 -27.8125 C 17.738281 -27.738281 19.003906 -27.703125 19.953125 -27.703125 C 25.066406 -27.703125 28.691406 -28.566406 30.828125 -30.296875 C 32.960938 -32.035156 34.03125 -34.84375 34.03125 -38.71875 Z M 34.03125 -38.71875 "/></g></g></g></g></g></g><g fill="#000000" fill-opacity="1"><g transform="translate(155.175156, 209.20988)"><g><path d="M 13.328125 -1.484375 C 13.328125 -1.140625 13.203125 -0.804688 12.953125 -0.484375 C 12.710938 -0.160156 12.394531 0 12 0 L 7.890625 0 C 7.546875 0 7.238281 -0.144531 6.96875 -0.4375 C 6.695312 -0.738281 6.5625 -1.085938 6.5625 -1.484375 L 6.5625 -53.9375 C 6.5625 -54.332031 6.679688 -54.664062 6.921875 -54.9375 C 7.171875 -55.21875 7.492188 -55.359375 7.890625 -55.359375 L 12 -55.359375 C 12.882812 -55.359375 13.328125 -54.882812 13.328125 -53.9375 Z M 13.328125 -1.484375 "/></g></g></g><g fill="#000000" fill-opacity="1"><g transform="translate(175.065592, 209.20988)"><g><path d="M 50.953125 -1.484375 C 50.953125 -1.085938 50.800781 -0.738281 50.5 -0.4375 C 50.207031 -0.144531 49.863281 0 49.46875 0 L 45.8125 0 C 45.414062 0 45.066406 -0.144531 44.765625 -0.4375 C 44.472656 -0.738281 44.328125 -1.085938 44.328125 -1.484375 L 44.328125 -45.671875 C 44.328125 -45.816406 44.300781 -45.890625 44.25 -45.890625 C 44.195312 -45.890625 44.148438 -45.84375 44.109375 -45.75 L 33.453125 -23.6875 C 33.097656 -22.945312 32.6875 -22.398438 32.21875 -22.046875 C 31.75 -21.703125 31.039062 -21.53125 30.09375 -21.53125 L 26.671875 -21.53125 C 25.722656 -21.53125 25.023438 -21.703125 24.578125 -22.046875 C 24.140625 -22.398438 23.71875 -22.945312 23.3125 -23.6875 L 12.671875 -45.75 C 12.617188 -45.84375 12.566406 -45.890625 12.515625 -45.890625 C 12.460938 -45.890625 12.4375 -45.816406 12.4375 -45.671875 L 12.4375 -1.484375 C 12.4375 -1.085938 12.285156 -0.738281 11.984375 -0.4375 C 11.691406 -0.144531 11.347656 0 10.953125 0 L 7.296875 0 C 6.898438 0 6.550781 -0.144531 6.25 -0.4375 C 5.957031 -0.738281 5.8125 -1.085938 5.8125 -1.484375 L 5.8125 -53.1875 C 5.8125 -53.789062 6.019531 -54.300781 6.4375 -54.71875 C 6.863281 -55.144531 7.375 -55.359375 7.96875 -55.359375 L 12.8125 -55.359375 C 14.007812 -55.359375 14.804688 -54.9375 15.203125 -54.09375 L 27.484375 -28.53125 C 27.734375 -27.988281 28.035156 -27.71875 28.390625 -27.71875 C 28.734375 -27.71875 29.03125 -27.988281 29.28125 -28.53125 L 41.578125 -54.09375 C 41.972656 -54.9375 42.765625 -55.359375 43.953125 -55.359375 L 48.796875 -55.359375 C 49.390625 -55.359375 49.894531 -55.144531 50.3125 -54.71875 C 50.738281 -54.300781 50.953125 -53.789062 50.953125 -53.1875 Z M 50.953125 -1.484375 "/></g></g></g><g fill="#000000" fill-opacity="1"><g transform="translate(231.757067, 209.20988)"><g><path d="M 13.328125 -1.484375 C 13.328125 -1.140625 13.203125 -0.804688 12.953125 -0.484375 C 12.710938 -0.160156 12.394531 0 12 0 L 7.890625 0 C 7.546875 0 7.238281 -0.144531 6.96875 -0.4375 C 6.695312 -0.738281 6.5625 -1.085938 6.5625 -1.484375 L 6.5625 -53.9375 C 6.5625 -54.332031 6.679688 -54.664062 6.921875 -54.9375 C 7.171875 -55.21875 7.492188 -55.359375 7.890625 -55.359375 L 12 -55.359375 C 12.882812 -55.359375 13.328125 -54.882812 13.328125 -53.9375 Z M 13.328125 -1.484375 "/></g></g></g><g fill="#000000" fill-opacity="1"><g transform="translate(251.647504, 209.20988)"><g><path d="M 44.84375 -2.15625 C 44.84375 -1.5625 44.628906 -1.050781 44.203125 -0.625 C 43.785156 -0.207031 43.28125 0 42.6875 0 L 38.0625 0 C 36.875 0 36.082031 -0.394531 35.6875 -1.1875 L 12.671875 -44.921875 C 12.617188 -45.066406 12.539062 -45.140625 12.4375 -45.140625 C 12.382812 -45.140625 12.359375 -45.066406 12.359375 -44.921875 L 12.359375 -1.421875 C 12.359375 -1.066406 12.234375 -0.738281 11.984375 -0.4375 C 11.742188 -0.144531 11.425781 0 11.03125 0 L 7.15625 0 C 6.800781 0 6.488281 -0.0625 6.21875 -0.1875 C 5.945312 -0.3125 5.8125 -0.546875 5.8125 -0.890625 L 5.8125 -53.265625 C 5.8125 -53.859375 6.019531 -54.351562 6.4375 -54.75 C 6.863281 -55.15625 7.375 -55.359375 7.96875 -55.359375 L 12.0625 -55.359375 C 13.113281 -55.359375 13.8125 -55.242188 14.15625 -55.015625 C 14.5 -54.796875 14.820312 -54.410156 15.125 -53.859375 L 38 -10.359375 L 38.140625 -10.125 C 38.191406 -10.125 38.21875 -10.203125 38.21875 -10.359375 L 38.21875 -53.9375 C 38.21875 -54.332031 38.351562 -54.664062 38.625 -54.9375 C 38.894531 -55.21875 39.207031 -55.359375 39.5625 -55.359375 L 43.515625 -55.359375 C 43.910156 -55.359375 44.226562 -55.21875 44.46875 -54.9375 C 44.71875 -54.664062 44.84375 -54.332031 44.84375 -53.9375 Z M 44.84375 -2.15625 "/></g></g></g><g fill="#000000" fill-opacity="1"><g transform="translate(302.304808, 209.20988)"><g><path d="M 36.953125 -0.890625 C 36.953125 -0.296875 36.703125 0.0507812 36.203125 0.15625 C 35.265625 0.25 33.925781 0.320312 32.1875 0.375 C 30.445312 0.425781 28.632812 0.460938 26.75 0.484375 C 24.863281 0.503906 23.171875 0.515625 21.671875 0.515625 C 16.460938 0.515625 12.515625 -0.550781 9.828125 -2.6875 C 7.148438 -4.820312 5.8125 -8.367188 5.8125 -13.328125 L 5.8125 -42.015625 C 5.8125 -46.984375 7.148438 -50.535156 9.828125 -52.671875 C 12.515625 -54.804688 16.460938 -55.875 21.671875 -55.875 C 23.171875 -55.875 24.847656 -55.859375 26.703125 -55.828125 C 28.566406 -55.804688 30.351562 -55.757812 32.0625 -55.6875 C 33.78125 -55.613281 35.160156 -55.523438 36.203125 -55.421875 C 36.703125 -55.328125 36.953125 -54.984375 36.953125 -54.390625 L 36.953125 -50.65625 C 36.953125 -50.0625 36.675781 -49.765625 36.125 -49.765625 L 21.75 -49.765625 C 19.125 -49.765625 17.148438 -49.515625 15.828125 -49.015625 C 14.515625 -48.523438 13.644531 -47.707031 13.21875 -46.5625 C 12.800781 -45.414062 12.59375 -43.898438 12.59375 -42.015625 L 12.59375 -31.65625 L 35.46875 -31.65625 C 35.863281 -31.65625 36.207031 -31.503906 36.5 -31.203125 C 36.800781 -30.910156 36.953125 -30.566406 36.953125 -30.171875 L 36.953125 -27.34375 C 36.953125 -26.945312 36.800781 -26.597656 36.5 -26.296875 C 36.207031 -25.992188 35.863281 -25.84375 35.46875 -25.84375 L 12.59375 -25.84375 L 12.59375 -13.328125 C 12.59375 -11.441406 12.800781 -9.925781 13.21875 -8.78125 C 13.644531 -7.644531 14.515625 -6.828125 15.828125 -6.328125 C 17.148438 -5.835938 19.125 -5.59375 21.75 -5.59375 L 36.125 -5.59375 C 36.675781 -5.59375 36.953125 -5.289062 36.953125 -4.6875 Z M 36.953125 -0.890625 "/></g></g></g></svg>